# xmcd
#
# Track frame offsets:
#	150
#	15968
#	32672
#	52963
#	78534
#	95002
#	117752
#	143557
#	161799
#	177547
#	200485
#	218520
#	233260
#	253022
#	271791
#	284999
#	297848
#	314122
#
# Disc length: 4350 seconds
#
# Revision: 2
# Processed by: cddbd v1.5.1PL2 Copyright (c) Steve Scherf et al.
# Submitted via: audiograbber 1.83.01
#
DISCID=0210fc12
DTITLE=Casa Rosso #1 - Houseclub
DYEAR=2006
DGENRE=Dance
TTITLE0=Your Body [Original Radio Edit] - Tom Novy
TTITLE1=From The Stars [Original Mix] - Oliver Moldan
TTITLE2=Soul Avengerz - Soul Avengerz
TTITLE3=My Life [Haji Emanuel Vocal Mix] - Chanel
TTITLE4=In My Head [Atfc's Tommy Is In My Head Remix] - Bionik Phunk
TTITLE5=Me Gusta [Gadjo Remix] - Big World
TTITLE6=That Sound [Denis The Menace and J. Ropero Remix] - Steve Lawler
TTITLE7=Plastic Funk - Plastic Funk
TTITLE8=I Got Music [Original Mix] - Candy Williams 
TTITLE9=Just Can't Get Enough [H&FS 2Risque Vox Mix] - Herd And Fitz
TTITLE10=Man In The Mirror [Radio Edit] - Rythme Fatal 
TTITLE11=Freak On [Album Radio Edit] - Stonebridge Vs. Ultra Nate
TTITLE12=Just Dance [Plastic Funk Remix] - Paul Johnson
TTITLE13=Only You [Horny United Mix 1] - The Sugar Kingz
TTITLE14=Every Day (Take Me Closer) [Radio Edit] - Fatblock
TTITLE15=I Watch You [Radio Edit] - Lee Cabrera
TTITLE16=Alright [Radio Edit] - Red Carpet
TTITLE17=Raining Again [Steve Angello's Vocal Mix] - Moby
EXTD=
EXTT0=
EXTT1=
EXTT2=
EXTT3=
EXTT4=
EXTT5=
EXTT6=
EXTT7=
EXTT8=
EXTT9=
EXTT10=
EXTT11=
EXTT12=
EXTT13=
EXTT14=
EXTT15=
EXTT16=
EXTT17=
PLAYORDER=
